<svg xmlns="http://www.w3.org/2000/svg" width="43" height="47" viewBox="0 0 43 47">
    <g fill="none" fill-rule="evenodd">
        <g stroke="#384182" stroke-width="2">
            <g transform="translate(-99 -182) translate(100 183.458)">
                <rect width="22" height="6.4" x="13" y="38.142" rx="3.2"/>
                <rect width="22" height="6.4" x="13" y="12.542" rx="3.2"/>
                <rect width="28" height="6.4" x="10" y="18.942" rx="3.2"/>
                <rect width="34" height="6.4" x="7" y="25.342" rx="3.2"/>
                <rect width="28" height="6.4" x="10" y="31.742" rx="3.2"/>
                <path fill="#F2F5FA" d="M24.5 23.542c2.319 0 3.727.35 4.53 1.087.995.915.962 2.345.97 3.88 0 1.752-.596 3.257-1.586 4.328-.994 1.075-2.38 1.705-3.914 1.705-1.519 0-2.894-.615-3.89-1.61-.994-.996-1.61-2.37-1.61-3.888h0v-.53c.008-1.54-.025-2.97.97-3.885.803-.736 2.211-1.087 4.53-1.087z"/>
                <path stroke-linecap="round" d="M0 0c10.969 4.658 18.72 7.314 23.255 7.968 5.983.863 9.854-1.328 15.324-1.836M10.324 7.301L7.43 3.207M19.62 3.496L13.935 4.974M24.799 8.298L24.777 11.298M37.794 2.946L33.077 6.447"/>
            </g>
        </g>
    </g>
</svg>
