<svg xmlns="http://www.w3.org/2000/svg" width="38" height="38" viewBox="0 0 38 38">
    <g fill="none" fill-rule="evenodd">
        <g>
            <g>
                <path fill="#FFF" fill-rule="nonzero" d="M36 7.98L18 0 0 7.98 0 28.02 18 36 36 28.02z" transform="translate(-100 -304) translate(101 305)"/>
                <path fill="#FFF" fill-rule="nonzero" d="M35.94 7.98L18 0 0 7.98 17.94 15.96z" opacity=".25" transform="translate(-100 -304) translate(101 305)"/>
                <path fill="#000064" fill-rule="nonzero" d="M0 7.98L0 28.02 18 36 17.94 15.96z" opacity=".15" transform="translate(-100 -304) translate(101 305)"/>
                <path stroke="#000" stroke-linecap="round" stroke-linejoin="round" stroke-width="2" d="M36 7.98L18 0 0 7.98 0 28.02 18 36 36 28.02z" transform="translate(-100 -304) translate(101 305)"/>
                <path stroke="#000" stroke-linecap="round" stroke-linejoin="round" stroke-width="2" d="M0 7.98l18 7.98 18-7.98M9.84 3.6l18 7.98M18 15.96V36" transform="translate(-100 -304) translate(101 305)"/>
            </g>
        </g>
    </g>
</svg>
