<svg xmlns="http://www.w3.org/2000/svg" width="40" height="38" viewBox="0 0 40 38">
    <g fill="none" fill-rule="evenodd" stroke-linecap="round" stroke-linejoin="round">
        <g stroke="#384182" stroke-width="2">
            <g>
                <path d="M16.96 30.24v-7.548c-.001-.674-.36-1.296-.943-1.632l-6.595-3.775c-.583-.337-1.301-.337-1.884 0L.942 21.06c-.582.336-.941.958-.942 1.632v7.548c0 .674.36 1.296.942 1.633l6.596 3.774c.583.337 1.301.337 1.884 0l6.595-3.774c.583-.337.942-.959.943-1.633z" transform="translate(-101 -411) translate(102 412)"/>
                <path d="M8.128 20.713l-4.073 2.33c-.36.209-.581.593-.582 1.009v4.661M37.092 30.34v-7.548c0-.673-.36-1.296-.942-1.632l-6.596-3.775c-.583-.337-1.301-.337-1.884 0l-6.596 3.775c-.582.336-.941.959-.942 1.632v7.549c0 .673.36 1.295.942 1.632l6.596 3.774c.583.337 1.301.337 1.884 0l6.596-3.774c.582-.337.941-.959.942-1.632zM27.026 13.208V5.659c0-.673-.36-1.295-.942-1.632L19.488.253c-.583-.337-1.301-.337-1.884 0l-6.596 3.774c-.582.337-.941.959-.942 1.632v7.549c0 .673.36 1.296.942 1.632l6.596 3.775c.583.337 1.301.337 1.884 0l6.596-3.775c.582-.336.941-.959.942-1.632z" transform="translate(-101 -411) translate(102 412)"/>
            </g>
        </g>
    </g>
</svg>
