<svg xmlns="http://www.w3.org/2000/svg" width="300" height="85" viewBox="0 0 300 85">
    <g fill="none" fill-rule="evenodd">
        <g>
            <g>
                <path d="M0 0H300V85H0z" transform="translate(-80 -15) translate(80 15)"/>
                <path fill="#000" fill-opacity=".87" fill-rule="nonzero" d="M109.164 65.2c7.35 0 12.9-5.45 12.9-13.25 0-7.85-5.55-13.25-12.9-13.25-4.6 0-8.5 2.25-10.6 6.15V27.9h-2.5V65h2.4v-6.15c2.05 4 6 6.35 10.7 6.35zm-.15-2.25c-6 0-10.5-4.45-10.5-11s4.5-11 10.5-11 10.55 4.45 10.55 11-4.55 11-10.55 11zm33.5 2.25c7.5 0 13.05-5.5 13.05-13.25s-5.55-13.25-13.05-13.25c-7.5 0-13.05 5.5-13.05 13.25s5.55 13.25 13.05 13.25zm0-2.25c-6 0-10.5-4.45-10.5-11s4.5-11 10.5-11 10.5 4.45 10.5 11-4.5 11-10.5 11zm21.05 2.05l8.95-11.65 8.95 11.65h2.95l-10.5-13.45 9.8-12.65h-2.8l-8.4 10.85-8.4-10.85h-2.85l9.8 12.65L160.714 65h2.85z" transform="translate(-80 -15) translate(80 15)"/>
                <path fill="#F3B804" fill-rule="nonzero" d="M208.914 65.2c7.35 0 12.9-5.45 12.9-13.25 0-7.85-5.55-13.25-12.9-13.25-4.6 0-8.5 2.25-10.6 6.15V27.9h-2.5V65h2.4v-6.15c2.05 4 6 6.35 10.7 6.35zm-.15-2.25c-6 0-10.5-4.45-10.5-11s4.5-11 10.5-11 10.55 4.45 10.55 11-4.55 11-10.55 11zm40.394-.013c3.421-1.975 5.814-5.03 6.406-8.605l-2.081-.704c-.507 3.122-2.548 5.686-5.406 7.336-5.413 3.125-11.453 1.763-14.77-3.482l19.442-11.225c-.125-.216-.206-.458-.306-.631-3.875-6.712-11.165-8.738-17.357-5.163-6.192 3.575-8.076 11.013-4.2 17.725 3.874 6.711 11.43 8.7 18.272 4.75zm.538-17.169l-17.32 10c-2.504-5.136-.997-10.625 3.81-13.4 4.806-2.775 10.382-1.318 13.51 3.4zm31.812 17.17c3.421-1.976 5.814-5.031 6.406-8.606l-2.081-.704c-.507 3.122-2.548 5.686-5.406 7.336-5.413 3.125-11.453 1.763-14.77-3.482L285.1 46.257c-.125-.216-.206-.458-.306-.631-3.875-6.712-11.165-8.738-17.357-5.163-6.192 3.575-8.076 11.013-4.2 17.725 3.874 6.711 11.43 8.7 18.272 4.75zm.538-17.17l-17.32 10c-2.504-5.136-.997-10.625 3.81-13.4 4.806-2.775 10.382-1.318 13.51 3.4z" transform="translate(-80 -15) translate(80 15)"/>
                <path fill="#FFF" d="M51.181 24.978L58.854 14.428 78.126 25.551 70.16 36.428z" transform="translate(-80 -15) translate(80 15)"/>
                <path fill="#FDDE81" d="M31.181 36.428L49.931 25.428 69.602 36.903 69.602 59.251 50.391 70.114 30.12 58.768z" transform="translate(-80 -15) translate(80 15)"/>
                <path fill="#000" fill-rule="nonzero" d="M47.083 25.346l-15.555 8.89c-1.76 1.015-2.845 2.893-2.847 4.925V56.94c.002 2.034 1.087 3.91 2.847 4.927l15.56 8.892c1.757 1.014 3.928 1.014 5.69-.003l15.55-8.886c1.765-1.02 2.85-2.896 2.853-4.929V39.162c-.002-2.033-1.088-3.91-2.848-4.927l-15.56-8.891c-1.757-1.015-3.928-1.015-5.69.002zm4.445 2.165l15.56 8.892c.983.567 1.591 1.62 1.593 2.76V56.94c-.002 1.139-.61 2.192-1.598 2.762l-15.55 8.886c-.994.573-2.211.573-3.2.003l-15.56-8.892c-.982-.567-1.591-1.62-1.592-2.76V39.162c0-1.139.61-2.192 1.592-2.759l15.556-8.889c.993-.573 2.21-.573 3.199-.003z" transform="translate(-80 -15) translate(80 15)"/>
                <path fill="#000" fill-rule="nonzero" d="M62.625 38.351c.597-.346 1.362-.141 1.707.456.326.563.164 1.273-.354 1.643l-.102.065-19.4 11.222c-.348.202-.77.222-1.133.06l-.118-.06-19.4-11.222c-.598-.346-.802-1.11-.457-1.708.326-.562 1.022-.776 1.601-.511l.107.055 18.775 10.86 18.774-10.86z" transform="translate(-80 -15) translate(80 15) rotate(120 43.85 45.044)"/>
                <path fill="#000" fill-rule="nonzero" d="M58.183 35.434c.597-.345 1.362-.141 1.708.456.325.563.163 1.273-.355 1.643l-.101.065-19.4 11.223c-.349.201-.77.221-1.134.06l-.118-.06-19.4-11.223c-.598-.345-.802-1.11-.456-1.708.325-.562 1.021-.776 1.6-.51l.108.054 18.774 10.86 18.774-10.86z" transform="translate(-80 -15) translate(80 15) rotate(120 39.409 42.127)"/>
                <path fill="#000" fill-rule="nonzero" d="M49.93 46.801c.65 0 1.184.496 1.245 1.13l.006.12v22.4c0 .69-.56 1.25-1.25 1.25-.65 0-1.184-.496-1.245-1.13l-.005-.12v-22.4c0-.69.56-1.25 1.25-1.25zM57.68 13.002c.353-.472.982-.63 1.51-.393l.112.056 19.61 11.228c.614.352.807 1.136.45 1.729l-.07.102-8.359 11.228c-.412.554-1.195.668-1.749.256-.521-.388-.653-1.104-.323-1.649l.067-.1 7.518-10.097-17.426-9.978L50.932 26.2c-.39.52-1.106.65-1.65.32l-.1-.068c-.52-.389-.651-1.106-.32-1.65l.068-.1 8.75-11.7z" transform="translate(-80 -15) translate(80 15)"/>
                <path fill="#FFF" d="M16.732 38.528L31.181 37.456 48.96 48.051 32.313 49.167z" transform="translate(-80 -15) translate(80 15)"/>
                <path fill="#000" fill-rule="nonzero" d="M30.559 36.622c.201-.058.413-.064.616-.019l.12.033 18.885 6.24c1.113.368 1.14 1.905.097 2.338l-.115.042-15.468 4.852c-.658.206-1.36-.16-1.567-.819-.194-.62.12-1.278.706-1.525l.113-.042 11.764-3.69-14.832-4.901-15.695 4.503c-.625.18-1.275-.15-1.508-.742l-.038-.114c-.18-.625.15-1.275.742-1.508l.114-.039 16.066-4.61z" transform="translate(-80 -15) translate(80 15) rotate(-166 32.313 43.37)"/>
                <path fill="#000" fill-rule="nonzero" d="M68.705 35.77c.597-.347 1.362-.142 1.708.455.325.563.163 1.273-.355 1.643l-.101.065-19.4 11.222c-.349.202-.77.222-1.134.06l-.118-.06-19.4-11.222c-.598-.346-.802-1.11-.456-1.708.325-.562 1.021-.776 1.6-.511l.108.055L49.93 46.63l18.774-10.86z" transform="translate(-80 -15) translate(80 15)"/>
                <path fill="#000" fill-rule="nonzero" d="M66.741 26.42c.686-.083 1.31.404 1.393 1.09.084.684-.403 1.308-1.088 1.392-3.51.431-4.903 3.366-3.987 9.362l.103.632c.055.32.117.65.185.988l.145.686.078.352c.153.673-.269 1.343-.942 1.496-.673.153-1.343-.27-1.496-.942-.079-.348-.152-.69-.22-1.027l-.127-.665c-1.461-8.007.448-12.687 5.956-13.363z" transform="translate(-80 -15) translate(80 15) rotate(11 64.228 34.43)"/>
                <path fill="#000" fill-rule="nonzero" d="M54.916 37.39c.655-.216 1.362.14 1.579.795.216.656-.14 1.363-.796 1.579-2.465.813-2.955 1.93-1.845 4.07.317.614.078 1.368-.535 1.686-.613.318-1.367.078-1.685-.535-1.834-3.537-.615-6.31 3.282-7.595z" transform="translate(-80 -15) translate(80 15) scale(-1 1) rotate(34 0 -134.078)"/>
                <path fill="#F3B804" fill-opacity=".6" style="mix-blend-mode:multiply" d="M30.531 49.167L49.097 49.167 49.097 69.167 31.073 59.805z" transform="translate(-80 -15) translate(80 15)"/>
            </g>
        </g>
    </g>
</svg>
