<svg xmlns="http://www.w3.org/2000/svg" width="86" height="50" viewBox="0 0 86 50">
    <g fill="none" fill-rule="evenodd">
        <g>
            <g transform="translate(-499 -370) translate(500 371)">
                <rect width="84" height="48" fill="#F8F3EB" stroke="#384182" stroke-width="1.5" rx="4"/>
                <path d="M14 1H71V48H14z"/>
                <path fill="#384182" fill-rule="nonzero" d="M26.87 42.784v-2.59c.038-.863-.499-1.597-1.266-1.64h-.192c-.499-.043-.998.259-1.304.734-.269-.475-.73-.777-1.228-.734-.422-.043-.844.216-1.074.604v-.518H21v4.144h.806v-2.288c-.077-.518.268-1.036.729-1.079h.153c.537 0 .806.389.806 1.08v2.287h.805v-2.288c-.076-.518.269-1.036.73-1.079h.153c.537 0 .805.389.805 1.08v2.287h.883zM38.8 38.64h-1.304v-1.252h-.806v1.252h-.729v.82h.73v1.9c0 .95.345 1.51 1.265 1.51.346 0 .69-.129.998-.302l-.23-.777c-.23.13-.46.216-.691.216-.384 0-.537-.259-.537-.69v-1.9H38.8v-.777zm6.83-.086c-.384 0-.768.216-.96.604v-.518h-.806v4.144h.806v-2.33c0-.691.269-1.08.767-1.08.154 0 .346.043.5.086l.23-.863c-.192-.043-.384-.086-.538-.043zm-10.32.432c-.461-.303-.96-.432-1.497-.432-.92 0-1.535.518-1.535 1.338 0 .69.46 1.08 1.266 1.209l.384.043c.422.086.652.216.652.432 0 .302-.307.518-.844.518-.422 0-.882-.13-1.228-.432l-.383.69c.46.346 1.036.562 1.573.519 1.074 0 1.688-.562 1.688-1.339 0-.777-.499-1.122-1.266-1.251l-.384-.044c-.345-.043-.614-.13-.614-.388 0-.26.269-.475.69-.475.423 0 .807.13 1.152.345l.345-.733zm21.368-.432c-.383 0-.767.216-.959.604v-.518h-.805v4.144h.805v-2.33c0-.691.269-1.08.768-1.08.153 0 .345.043.498.086l.23-.863c-.153-.043-.345-.086-.537-.043zm-10.281 2.158c-.039 1.166.767 2.115 1.764 2.159h.192c.46.043.96-.13 1.305-.475l-.384-.734c-.269.216-.614.345-.96.388-.651-.043-1.112-.69-1.073-1.424.038-.648.498-1.166 1.074-1.209.345 0 .69.13.959.389l.384-.734c-.384-.345-.844-.518-1.305-.475-1.036-.086-1.88.82-1.956 1.943v.172zm7.48 0V38.64h-.805v.518c-.268-.388-.69-.604-1.15-.604-1.075 0-1.92.95-1.92 2.158 0 1.209.845 2.159 1.92 2.159.46 0 .882-.216 1.15-.605v.518h.806v-2.072zm-2.953 0c.038-.69.575-1.208 1.189-1.165.614.043 1.074.647 1.036 1.338-.039.647-.499 1.165-1.113 1.165s-1.112-.518-1.112-1.208v-.13zm-9.63-2.158c-1.074 0-1.918.993-1.88 2.201.039 1.209.883 2.159 1.957 2.116.537.043 1.112-.173 1.534-.562l-.383-.647c-.307.259-.69.432-1.074.432-.538.043-1.036-.389-1.113-.993h2.724v-.346c0-1.338-.73-2.201-1.765-2.201zm0 .777c.499 0 .92.432.92.993h-1.917c.038-.561.46-.993.997-.993zm19.988 1.381V37h-.767v2.158c-.269-.388-.69-.604-1.151-.604-1.074 0-1.918.95-1.918 2.158 0 1.209.844 2.159 1.918 2.159.46 0 .882-.216 1.15-.605v.518h.768v-2.072zm1.343 1.468c.038 0 .115 0 .153.043.039 0 .077.043.115.086.039.044.077.087.077.13.039.086.039.216 0 .302-.038.043-.038.086-.077.13-.038.043-.076.086-.115.086-.038.043-.076.043-.153.043-.154 0-.269-.086-.345-.259-.039-.086-.039-.216 0-.302.038-.043.038-.086.076-.13.039-.043.077-.086.115-.086.039-.043.116-.043.154-.043zm0 .734c.038 0 .077 0 .115-.043.038 0 .077-.044.077-.087.115-.13.115-.302 0-.431l-.077-.087c-.038 0-.077-.043-.115-.043-.038 0-.077 0-.115.043-.039 0-.077.043-.077.087-.115.129-.115.302 0 .431.038.043.077.043.077.087.038 0 .077.043.115.043zm0-.518c.038 0 .077 0 .115.043.038.043.038.043.038.086s0 .043-.038.087c-.038.043-.038.043-.077.043l.115.13h-.076l-.115-.13h-.039v.13h-.077v-.39h.154zm-.077.043v.086H62.664v-.043-.043H62.55zm-4.22-1.727c.038-.69.576-1.208 1.19-1.165.613.043 1.074.647 1.035 1.338-.038.647-.499 1.165-1.112 1.165-.614 0-1.113-.518-1.113-1.208v-.13zm-26.932 0V38.64h-.806v.518c-.268-.388-.69-.604-1.15-.604-1.075 0-1.919.95-1.919 2.158 0 1.209.844 2.159 1.918 2.159.46 0 .883-.216 1.151-.605v.518h.806v-2.072zm-2.993 0c.039-.69.576-1.208 1.19-1.165.614.043 1.074.647 1.036 1.338-.039.647-.5 1.165-1.113 1.165-.614 0-1.113-.518-1.113-1.208v-.13zM36 10H48V32H36z"/>
                <path fill="#384182" fill-rule="nonzero" stroke="#FBF5EB" stroke-width="1.2" d="M36.752 20.997c0-4.276 1.925-8.357 5.21-11-5.89-4.782-14.461-3.732-19.067 2.37-4.607 6.103-3.625 14.888 2.303 19.63 4.946 4.004 11.856 4.004 16.802 0-3.36-2.682-5.286-6.724-5.248-11zM65 21.021C65 28.748 58.637 35 50.773 35c-3.2 0-6.283-1.048-8.773-2.99 6.165-4.776 7.232-13.59 2.41-19.648-.71-.893-1.501-1.67-2.41-2.369 6.165-4.776 15.136-3.728 19.997 2.369C63.933 14.808 65 17.876 65 21.02h0z"/>
                <path fill="#384182" fill-rule="nonzero" d="M64.233 29.933v-.8h.167V29H64v.133h.167v.8h.066zm.767 0V29h-.133l-.134.667L64.6 29h-.1v.933h.1v-.666l.133.6h.1l.134-.6V30l.033-.067z"/>
            </g>
        </g>
    </g>
</svg>
