<svg xmlns="http://www.w3.org/2000/svg" width="86" height="50" viewBox="0 0 86 50">
    <g fill="none" fill-rule="evenodd">
        <g>
            <g transform="translate(-314 -370) translate(315 371)">
                <rect width="84" height="48" fill="#FFF" stroke="#8E909A" stroke-width="1.5" rx="4"/>
                <path fill="#8E909A" fill-rule="nonzero" d="M53.646 33.194c.077-.186.13-.325.186-.463l6.424-15.39c.2-.478.45-.933.894-1.215.258-.167.578-.32.875-.334 1.319-.048 2.643-.043 3.962-.062.177-.005.23.086.263.239.554 2.648 1.113 5.295 1.668 7.943.621 2.959 1.238 5.922 1.854 8.88.01.053.02.11.034.163.052.172-.02.23-.187.23-.392-.005-.779-.005-1.17 0-.837.004-1.674.01-2.51.028-.215.005-.31-.067-.349-.282-.139-.702-.301-1.4-.44-2.103-.038-.186-.124-.248-.306-.248-.54.01-1.084.005-1.625 0-1.194-.01-2.39-.015-3.584-.029-.206-.005-.31.057-.383.258-.243.717-.516 1.42-.769 2.137-.067.196-.177.267-.382.267-1.386-.01-2.773-.005-4.159-.005-.08.015-.167-.004-.296-.014zm9.416-12.55c-.899 2.04-1.568 4.186-2.385 6.299h3.656c-.425-2.113-.85-4.206-1.271-6.3zM25.686 27.473c.263-.717.526-1.434.793-2.146 1.157-3.121 2.309-6.242 3.46-9.363.058-.153.12-.239.302-.239 1.458.005 2.915.005 4.373.005.062 0 .124.014.215.024-.038.11-.062.196-.095.282-2.113 5.157-4.22 10.314-6.338 15.471-.21.507-.435 1.008-.64 1.52-.063.153-.153.2-.306.196-1.387-.015-2.773-.034-4.159-.029-.243 0-.349-.072-.41-.31-.837-3.179-1.688-6.357-2.529-9.53-.454-1.702-.908-3.4-1.353-5.1-.047-.177-.133-.287-.291-.378-1.152-.65-2.385-1.1-3.628-1.52-.34-.115-.679-.225-1.07-.354.291-.191.578-.248.86-.263.349-.019.698-.01 1.047-.01 1.682 0 3.36 0 5.042.01.382 0 .765.02 1.147.043.717.048 1.343.646 1.5 1.43.455 2.265.9 4.53 1.349 6.791.23 1.152.458 2.309.693 3.46.01.005.024.01.038.01zM41.788 28.606c.11.048.206.081.296.124 1.496.727 3.069 1.104 4.737.999.679-.043 1.348-.13 1.902-.597.645-.545.755-1.281.177-1.898-.31-.33-.707-.588-1.104-.822-.827-.492-1.697-.913-2.51-1.424-.903-.57-1.634-1.329-2.035-2.342-.54-1.367-.306-2.677.382-3.924.674-1.224 1.73-2.017 2.997-2.557 1.5-.64 3.073-.846 4.698-.732 1.047.077 2.065.268 3.068.574.192.057.244.139.21.34-.176 1.108-.334 2.217-.501 3.326-.01.076-.038.153-.067.258-.1-.038-.186-.072-.272-.11-1.071-.468-2.19-.746-3.36-.726-.497.01-1 .086-1.487.19-.535.115-.932.44-1.137.961-.153.378-.091.75.22 1.004.487.392.998.765 1.529 1.09.63.382 1.314.688 1.95 1.066.922.545 1.725 1.247 2.136 2.25.818 1.999.402 3.824-.984 5.42-1.061 1.224-2.48 1.865-4.044 2.137-2.456.42-4.884.273-7.245-.602-.187-.072-.24-.158-.206-.349.2-1.142.387-2.29.583-3.436.01-.067.038-.134.067-.22zM36.1 33.19c-.669 0-1.338-.005-2.007.004-.2.005-.263-.048-.23-.263.287-1.806.56-3.618.847-5.424.43-2.7.874-5.401 1.314-8.107.182-1.132.363-2.26.535-3.393.034-.21.11-.292.335-.292 1.324.01 2.643.005 3.967.005.287 0 .296.005.248.297l-1.118 6.949c-.406 2.538-.817 5.076-1.224 7.609-.129.793-.258 1.587-.372 2.38-.024.172-.096.225-.263.225-.679.005-1.358.01-2.032.01z"/>
            </g>
        </g>
    </g>
</svg>
