<svg xmlns="http://www.w3.org/2000/svg" width="360" height="102" viewBox="0 0 360 102">
    <g fill="none" fill-rule="evenodd">
        <g>
            <g>
                <path d="M0 0H360V102H0z" transform="translate(-50 -79) translate(50 79)"/>
                <path fill="#000" fill-opacity=".87" fill-rule="nonzero" d="M130.997 78.24c8.82 0 15.48-6.54 15.48-15.9 0-9.42-6.66-15.9-15.48-15.9-5.52 0-10.2 2.7-12.72 7.38V33.48h-3V78h2.88v-7.38c2.46 4.8 7.2 7.62 12.84 7.62zm-.18-2.7c-7.2 0-12.6-5.34-12.6-13.2 0-7.86 5.4-13.2 12.6-13.2 7.2 0 12.66 5.34 12.66 13.2 0 7.86-5.46 13.2-12.66 13.2zm40.2 2.7c9 0 15.66-6.6 15.66-15.9s-6.66-15.9-15.66-15.9-15.66 6.6-15.66 15.9 6.66 15.9 15.66 15.9zm0-2.7c-7.2 0-12.6-5.34-12.6-13.2 0-7.86 5.4-13.2 12.6-13.2 7.2 0 12.6 5.34 12.6 13.2 0 7.86-5.4 13.2-12.6 13.2zm25.26 2.46l10.74-13.98L217.757 78h3.54l-12.6-16.14 11.76-15.18h-3.36l-10.08 13.02-10.08-13.02h-3.42l11.76 15.18L192.857 78h3.42z" transform="translate(-50 -79) translate(50 79)"/>
                <path fill="#F3B804" fill-rule="nonzero" d="M250.697 78.24c8.82 0 15.48-6.54 15.48-15.9 0-9.42-6.66-15.9-15.48-15.9-5.52 0-10.2 2.7-12.72 7.38V33.48h-3V78h2.88v-7.38c2.46 4.8 7.2 7.62 12.84 7.62zm-.18-2.7c-7.2 0-12.6-5.34-12.6-13.2 0-7.86 5.4-13.2 12.6-13.2 7.2 0 12.66 5.34 12.66 13.2 0 7.86-5.46 13.2-12.66 13.2zm48.473-.015c4.105-2.37 6.976-6.037 7.686-10.327l-2.496-.845c-.609 3.747-3.059 6.824-6.488 8.804-6.495 3.75-13.744 2.115-17.724-4.178l23.331-13.47c-.15-.26-.248-.55-.368-.758-4.65-8.054-13.398-10.486-20.828-6.196-7.43 4.29-9.69 13.216-5.04 21.27 4.65 8.054 13.717 10.44 21.927 5.7zm.645-20.603l-20.785 12c-3.004-6.163-1.195-12.75 4.573-16.08 5.767-3.33 12.458-1.581 16.212 4.08zm38.175 20.603c4.105-2.37 6.976-6.037 7.686-10.327L343 64.353c-.609 3.747-3.059 6.824-6.488 8.804-6.495 3.75-13.744 2.115-17.724-4.178l23.331-13.47c-.15-.26-.248-.55-.368-.758-4.65-8.054-13.398-10.486-20.828-6.196-7.43 4.29-9.69 13.216-5.04 21.27 4.65 8.054 13.717 10.44 21.927 5.7zm.645-20.603l-20.785 12c-3.004-6.163-1.195-12.75 4.573-16.08 5.767-3.33 12.458-1.581 16.212 4.08z" transform="translate(-50 -79) translate(50 79)"/>
                <path fill="#FFF" d="M61.417 29.973L70.625 17.313 93.752 30.661 84.192 43.714z" transform="translate(-50 -79) translate(50 79)"/>
                <path fill="#FDDE81" d="M37.417 43.714L59.917 30.514 83.522 44.283 83.522 71.101 60.47 84.137 36.144 70.522z" transform="translate(-50 -79) translate(50 79)"/>
                <path fill="#000" fill-rule="nonzero" d="M56.5 30.416L37.833 41.082c-2.112 1.22-3.414 3.472-3.416 5.911v21.335c.002 2.44 1.304 4.693 3.416 5.912l18.673 10.67c2.108 1.218 4.713 1.218 6.827-.003l18.661-10.663c2.118-1.223 3.42-3.476 3.423-5.914V46.995c-.003-2.44-1.305-4.693-3.417-5.913l-18.672-10.67c-2.109-1.217-4.714-1.217-6.828.004zm5.333 2.598l18.673 10.67c1.179.68 1.91 1.944 1.91 3.312v21.332c0 1.367-.731 2.63-1.916 3.314L61.84 82.306c-1.193.688-2.654.688-3.84.003l-18.672-10.67c-1.18-.68-1.91-1.944-1.911-3.313V46.995c.001-1.367.732-2.63 1.91-3.311l18.667-10.667c1.192-.688 2.653-.688 3.84-.003z" transform="translate(-50 -79) translate(50 79)"/>
                <path fill="#000" fill-rule="nonzero" d="M75.15 46.021c.717-.415 1.634-.17 2.049.548.39.674.196 1.527-.426 1.97l-.121.08-23.28 13.466c-.419.242-.924.266-1.36.072l-.143-.072-23.28-13.467c-.717-.415-.962-1.332-.547-2.05.39-.674 1.226-.931 1.921-.613l.129.066L52.62 59.053l22.528-13.032z" transform="translate(-50 -79) translate(50 79) rotate(120 52.62 54.053)"/>
                <path fill="#000" fill-rule="nonzero" d="M69.82 42.521c.716-.415 1.634-.17 2.049.548.39.674.196 1.527-.426 1.97l-.122.08-23.28 13.466c-.418.242-.924.266-1.36.072l-.142-.072-23.28-13.467c-.717-.415-.962-1.332-.547-2.05.39-.674 1.226-.931 1.921-.613l.128.066 22.53 13.032 22.528-13.032z" transform="translate(-50 -79) translate(50 79) rotate(120 47.29 50.553)"/>
                <path fill="#000" fill-rule="nonzero" d="M59.917 56.161c.78 0 1.42.595 1.493 1.356l.007.144v26.88c0 .829-.672 1.5-1.5 1.5-.78 0-1.42-.595-1.493-1.355l-.007-.145v-26.88c0-.828.671-1.5 1.5-1.5zM69.216 15.602c.423-.567 1.179-.755 1.812-.472l.134.068 23.532 13.474c.737.422.97 1.363.54 2.074l-.082.123L85.12 44.342c-.495.665-1.435.803-2.099.308-.625-.466-.784-1.326-.388-1.98l.08-.12 9.022-12.116-20.911-11.973-9.706 12.979c-.467.624-1.327.78-1.98.384l-.12-.081c-.624-.467-.78-1.327-.384-1.98l.082-.12 10.5-14.041z" transform="translate(-50 -79) translate(50 79)"/>
                <path fill="#FFF" d="M20.078 46.234L37.417 44.947 58.752 57.661 38.775 59z" transform="translate(-50 -79) translate(50 79)"/>
                <path fill="#000" fill-rule="nonzero" d="M36.67 43.946c.242-.07.496-.077.74-.022l.145.04 22.66 7.488c1.336.441 1.369 2.286.118 2.805l-.14.05-18.56 5.822c-.79.248-1.632-.192-1.88-.982-.233-.744.142-1.533.846-1.83l.136-.05 14.117-4.429-17.798-5.88L18.22 52.36c-.75.215-1.53-.18-1.81-.89l-.046-.138c-.215-.75.18-1.53.891-1.809l.137-.046 19.279-5.532z" transform="translate(-50 -79) translate(50 79) rotate(-166 38.775 52.043)"/>
                <path fill="#000" fill-rule="nonzero" d="M82.446 42.923c.717-.415 1.634-.17 2.05.547.39.675.195 1.528-.427 1.971l-.121.079-23.28 13.466c-.418.242-.924.266-1.36.073l-.142-.073-23.28-13.466c-.717-.415-.962-1.333-.548-2.05.39-.675 1.227-.931 1.921-.613l.129.066 22.53 13.031 22.528-13.031z" transform="translate(-50 -79) translate(50 79)"/>
                <path fill="#000" fill-rule="nonzero" d="M80.09 31.705c.822-.1 1.57.484 1.671 1.306.101.822-.484 1.57-1.306 1.672-4.212.517-5.883 4.038-4.784 11.234l.123.758c.067.385.141.78.223 1.186l.173.823c.03.14.062.28.094.422.183.808-.323 1.612-1.13 1.795-.808.184-1.612-.322-1.796-1.13-.094-.417-.182-.828-.263-1.232l-.154-.799c-1.752-9.608.538-15.223 7.149-16.035z" transform="translate(-50 -79) translate(50 79) rotate(11 77.073 41.316)"/>
                <path fill="#000" fill-rule="nonzero" d="M65.899 44.868c.787-.26 1.635.168 1.894.954.26.787-.167 1.635-.954 1.895-2.958.976-3.547 2.315-2.215 4.885.382.735.094 1.64-.641 2.022-.736.381-1.64.094-2.022-.641-2.2-4.245-.738-7.572 3.938-9.115z" transform="translate(-50 -79) translate(50 79) scale(-1 1) rotate(34 0 -160.894)"/>
                <path fill="#F3B804" fill-opacity=".6" style="mix-blend-mode:multiply" d="M36.637 59L58.917 59 58.917 83 37.287 71.766z" transform="translate(-50 -79) translate(50 79)"/>
            </g>
        </g>
    </g>
</svg>
